<svg width="110" height="30" viewBox="0 0 110 30" fill="none" xmlns="http://www.w3.org/2000/svg">
<path d="M5.2665 9.15763C4.88474 8.49708 5.11129 7.6524 5.77253 7.27101L11.1602 4.16348C11.8214 3.78209 12.6669 4.00842 13.0486 4.669C13.4305 5.32959 13.2039 6.17427 12.5426 6.55566L7.15499 9.66324C6.49377 10.0446 5.64825 9.81824 5.2665 9.15763Z" fill="#37D5C7"/>
<path d="M9.07136 26.1004C8.68966 25.4398 8.91609 24.5952 9.57736 24.2138L14.9651 21.1063C15.6263 20.7249 16.4717 20.9512 16.8535 21.6118C17.2353 22.2724 17.0088 23.1171 16.3475 23.4985L10.9598 26.606C10.2986 26.9874 9.45315 26.761 9.07136 26.1004Z" fill="#37D5C7"/>
<path d="M11.8085 14.953C11.4267 14.2924 11.6533 13.4477 12.3145 13.0663L19.7974 8.75027C20.4586 8.36888 21.304 8.59521 21.6858 9.25581C22.0676 9.91637 21.8411 10.7611 21.1798 11.1424L13.6969 15.4585C13.0358 15.8399 12.1902 15.6136 11.8085 14.953Z" fill="#37D5C7"/>
<path d="M0.734397 21.3407C0.352638 20.6802 0.579191 19.8355 1.24042 19.4541L9.32193 14.7928C9.98311 14.4114 10.8287 14.6377 11.2104 15.2983C11.5922 15.9589 11.3656 16.8036 10.7044 17.1849L2.62289 21.8463C1.96167 22.2276 1.11615 22.0013 0.734397 21.3407Z" fill="#37D5C7"/>
<path d="M13.0267 9.46577C12.6448 8.80518 12.8714 7.9605 13.5327 7.57911L15.0292 6.71591C15.6905 6.33452 16.536 6.56085 16.9177 7.22144C17.2995 7.88201 17.0729 8.7267 16.4117 9.10806L14.9151 9.97129C14.2539 10.3527 13.4084 10.1264 13.0267 9.46577Z" fill="#37D5C7"/>
<path d="M17.4524 21.2662C17.0706 20.6056 17.2972 19.761 17.9584 19.3796L19.455 18.5164C20.1163 18.135 20.9618 18.3613 21.3435 19.0219C21.7253 19.6825 21.4987 20.5272 20.8375 20.9086L19.341 21.7717C18.6797 22.1532 17.8342 21.9268 17.4524 21.2662Z" fill="#37D5C7"/>
<path d="M4.9034 23.7202C4.52164 23.0597 4.74819 22.215 5.40943 21.8336L6.90599 20.9704C7.56722 20.589 8.41273 20.8153 8.79449 21.4759C9.17627 22.1365 8.94967 22.9812 8.28844 23.3626L6.79189 24.2258C6.13067 24.6071 5.28516 24.3808 4.9034 23.7202Z" fill="#37D5C7"/>
<path d="M0.776817 11.747C0.395057 11.0865 0.62161 10.2418 1.28284 9.86043L2.77941 8.99722C3.44063 8.61583 4.28614 8.84216 4.6679 9.50274C5.04966 10.1633 4.82311 11.0081 4.16188 11.3894L2.66531 12.2526C2.00408 12.6339 1.15857 12.4076 0.776817 11.747Z" fill="#37D5C7"/>
<path d="M0.755882 16.544C0.374123 15.8834 0.600674 15.0388 1.2619 14.6573L10.5406 9.30549C11.2019 8.92411 12.0473 9.15049 12.4292 9.81103C12.8109 10.4715 12.5843 11.3163 11.9232 11.6977L2.64437 17.0496C1.98315 17.4309 1.13765 17.2046 0.755882 16.544Z" fill="#37D5C7"/>
<path d="M9.39306 21.1311C9.01136 20.4705 9.23787 19.6259 9.89914 19.2444L19.1779 13.8926C19.839 13.5112 20.6846 13.7376 21.0663 14.3982C21.448 15.0587 21.2214 15.9033 20.5603 16.2848L11.2816 21.6367C10.6203 22.018 9.77484 21.7917 9.39306 21.1311Z" fill="#37D5C7"/>
<path fill-rule="evenodd" clip-rule="evenodd" d="M46.017 22.5821C44.8679 21.9023 43.9583 20.9656 43.2923 19.7783L43.2899 19.774C42.639 18.5804 42.3188 17.2243 42.3188 15.7171C42.3188 14.197 42.6195 12.8428 43.2339 11.6667L43.235 11.6646C43.8636 10.4778 44.7278 9.53899 45.8254 8.85669C46.9301 8.16991 48.1967 7.83203 49.6117 7.83203C51.0061 7.83203 52.2386 8.15956 53.293 8.82997C54.3582 9.4782 55.1806 10.3848 55.7567 11.5399C56.3328 12.6948 56.6155 14.0012 56.6155 15.4494C56.6155 15.8299 56.4951 16.1735 56.2327 16.441L56.225 16.4487L56.217 16.4561C55.9527 16.6985 55.6208 16.8042 55.2594 16.8042H45.1189C45.2176 17.3869 45.3991 17.9186 45.6612 18.4021C46.0989 19.1773 46.6869 19.7835 47.429 20.2273C48.164 20.6668 49.0188 20.8924 50.0057 20.8924C50.5887 20.8924 51.1744 20.7936 51.7642 20.5937C52.378 20.3737 52.8439 20.111 53.1786 19.8165L53.1869 19.8091C53.4479 19.5916 53.7533 19.4772 54.089 19.474C54.4209 19.4529 54.7306 19.5409 54.9905 19.7528L55.0018 19.7621L55.0125 19.7721C55.297 20.0397 55.4813 20.3711 55.4859 20.7603C55.5089 21.1539 55.3445 21.4876 55.0508 21.7376C54.4288 22.2749 53.6494 22.7158 52.7233 23.0672L52.7167 23.0698C51.7861 23.4044 50.8818 23.5753 50.0057 23.5753C48.5263 23.5753 47.1952 23.2491 46.0237 22.5859L46.017 22.5821ZM51.9097 11.1433C51.2868 10.7307 50.527 10.515 49.6117 10.515C48.6809 10.515 47.883 10.7386 47.2031 11.1736C46.5179 11.6119 45.9813 12.221 45.5927 13.0121C45.4087 13.3955 45.2693 13.8094 45.1753 14.2551H53.8391C53.7554 13.7698 53.6147 13.3186 53.4182 12.9C53.0643 12.1464 52.5633 11.5654 51.9137 11.1459L51.9097 11.1433Z" fill="white"/>
<path d="M62.3321 8.61353L62.3353 8.61155C63.2415 8.07301 64.2416 7.80524 65.3266 7.80524C66.1612 7.80524 66.859 7.92372 67.3811 8.20031C67.6519 8.34382 67.8791 8.54194 68.012 8.81252C68.147 9.08761 68.1601 9.38813 68.0899 9.68588L68.0875 9.6961C68.0001 10.0299 67.8259 10.3312 67.5148 10.4935C67.2681 10.6305 66.9832 10.6691 66.6897 10.6478L66.6873 10.6476C66.4628 10.63 66.2027 10.6122 65.9067 10.5945L65.9006 10.5942L65.8943 10.5937C64.9644 10.509 64.1535 10.6121 63.4519 10.8883L63.4472 10.8902C62.7624 11.1498 62.2245 11.5494 61.8198 12.0873C61.4412 12.6134 61.2451 13.2457 61.2451 14.0041V22.0063C61.2451 22.4066 61.1339 22.7746 60.8622 23.0513C60.5905 23.3281 60.2294 23.4415 59.8365 23.4415C59.4436 23.4415 59.0824 23.3281 58.8107 23.0513C58.539 22.7746 58.4279 22.4066 58.4279 22.0063V9.40096C58.4279 9.00068 58.539 8.63268 58.8107 8.35592C59.0824 8.07917 59.4436 7.96582 59.8365 7.96582C60.2294 7.96582 60.5905 8.07917 60.8622 8.35592C61.1339 8.63268 61.2451 9.00068 61.2451 9.40096V9.45161C61.5753 9.13247 61.9377 8.85291 62.3321 8.61353Z" fill="white"/>
<path d="M70.4743 23.0519L70.4611 23.0371C70.2035 22.7484 70.0917 22.3817 70.0917 21.9796V15.4667C70.0917 15.0665 70.2029 14.6985 70.4746 14.4217C70.7563 14.1346 71.121 14.0049 71.5266 14.0049C71.9151 14.0049 72.2634 14.1353 72.5264 14.4216C72.8121 14.6944 72.9353 15.0615 72.9353 15.4667V21.9796C72.9353 22.3928 72.8079 22.7644 72.5261 23.0514C72.2588 23.3238 71.9096 23.4416 71.5266 23.4416C71.1319 23.4416 70.7722 23.3277 70.4887 23.0652L70.4743 23.0519Z" fill="white"/>
<path fill-rule="evenodd" clip-rule="evenodd" d="M97.1692 22.5538L97.1641 22.5513C96.0354 21.8536 95.1368 20.9094 94.4734 19.7249L94.4708 19.7204C93.8201 18.5285 93.4995 17.1906 93.4995 15.7171C93.4995 14.2246 93.8294 12.8761 94.4996 11.6825L94.5021 11.6782C95.185 10.4924 96.1115 9.55731 97.2767 8.8786C98.4469 8.17852 99.7627 7.83203 101.213 7.83203C102.662 7.83203 103.969 8.17825 105.123 8.87928C106.288 9.55807 107.206 10.4935 107.871 11.6801C108.558 12.8722 108.907 14.2198 108.926 15.7118V15.7171V22.0063C108.926 22.4092 108.794 22.7691 108.516 23.0514L108.509 23.0584L108.502 23.0651C108.223 23.3235 107.875 23.4415 107.491 23.4415C107.106 23.4415 106.758 23.3235 106.479 23.0651L106.472 23.0584L106.465 23.0514C106.188 22.7691 106.056 22.4092 106.056 22.0063V21.5171C105.635 21.944 105.157 22.3166 104.625 22.6347L104.623 22.6359C103.555 23.2654 102.344 23.5753 101.002 23.5753C99.5875 23.5753 98.3056 23.2374 97.1692 22.5538ZM103.707 20.2026L103.711 20.2004C104.452 19.757 105.031 19.1517 105.45 18.3783L105.451 18.3757C105.888 17.5863 106.109 16.7032 106.109 15.7171C106.109 14.7116 105.887 13.8303 105.453 13.0617L105.45 13.0558C105.031 12.2824 104.452 11.6771 103.711 11.2336L103.702 11.2281C102.984 10.7737 102.159 10.5417 101.213 10.5417C100.285 10.5417 99.4572 10.7729 98.7202 11.2301L98.7143 11.2337C97.9714 11.678 97.3833 12.2851 96.945 13.0617C96.5118 13.8303 96.2909 14.7116 96.2909 15.7171C96.2909 16.7026 96.5109 17.5851 96.9458 18.3741C97.3841 19.1499 97.9714 19.7566 98.7143 20.2005C99.453 20.642 100.281 20.8655 101.213 20.8655C102.162 20.8655 102.989 20.6412 103.707 20.2026Z" fill="white"/>
<path d="M33.0445 22.5027L33.0453 22.5044C33.1715 22.7825 33.3423 23.0202 33.5709 23.1884C33.8042 23.3601 34.0738 23.4415 34.3629 23.4415C34.6621 23.4415 34.9425 23.364 35.1857 23.1944C35.4263 23.0268 35.6052 22.7863 35.7337 22.5027L41.4839 9.87649C41.6393 9.55602 41.6496 9.21427 41.525 8.88093C41.3994 8.52619 41.1575 8.25983 40.8246 8.09029L40.8138 8.08479L40.8028 8.07996C40.464 7.93207 40.1091 7.92076 39.7578 8.03805C39.3938 8.1467 39.1289 8.39594 38.9786 8.74989L34.3695 19.0583L29.6866 8.73228L29.6807 8.72102C29.5146 8.4068 29.2663 8.17462 28.9412 8.04725C28.5937 7.91109 28.2389 7.94646 27.9061 8.11451C27.5689 8.27606 27.3083 8.52633 27.1762 8.87622C27.0476 9.2169 27.0627 9.56607 27.2129 9.89742L33.0445 22.5027Z" fill="white"/>
<path fill-rule="evenodd" clip-rule="evenodd" d="M76.7168 19.7294C77.4003 20.9149 78.3262 21.8584 79.4898 22.5546L79.494 22.557C80.6648 23.2386 81.9793 23.5756 83.428 23.5756C84.8586 23.5756 86.1566 23.2384 87.3099 22.5564C88.4751 21.8782 89.3932 20.9519 90.0608 19.782C90.7453 18.593 91.1041 17.2655 91.1413 15.8084V3.16553C91.1413 2.7569 91.0153 2.38706 90.725 2.11359C90.4492 1.83595 90.0989 1.70361 89.7063 1.70361C89.3136 1.70361 88.9633 1.83596 88.6866 2.1136C88.3964 2.38708 88.2712 2.75691 88.2712 3.16553V9.89326C87.788 9.40631 87.2253 8.99415 86.5873 8.65682C85.5779 8.1047 84.4516 7.83232 83.2179 7.83232C81.8011 7.83232 80.5189 8.1798 79.3818 8.88187C78.2516 9.56198 77.3526 10.498 76.6882 11.6828L76.6858 11.6871C76.0357 12.8792 75.7147 14.217 75.7147 15.6906C75.7147 17.183 76.045 18.5316 76.7144 19.7252L76.7168 19.7294ZM87.6687 13.062C88.1028 13.8317 88.3236 14.7044 88.3236 15.6906C88.3236 16.696 88.102 17.5773 87.6687 18.3459L87.6653 18.3518C87.2448 19.1261 86.666 19.7416 85.9214 20.2034C85.2039 20.6418 84.377 20.8658 83.428 20.8658C82.4988 20.8658 81.6703 20.6428 80.9327 20.2025C80.1879 19.74 79.5985 19.1229 79.1605 18.3459C78.7271 17.5773 78.5057 16.696 78.5057 15.6906C78.5057 14.7044 78.7264 13.8317 79.1605 13.062L79.1622 13.0587C79.6007 12.2646 80.189 11.6502 80.9299 11.2071C81.6681 10.7657 82.4971 10.542 83.428 10.542C84.377 10.542 85.2047 10.7663 85.9223 11.2051L85.9256 11.2071C86.6652 11.6493 87.2439 12.262 87.6636 13.0529L87.6687 13.062Z" fill="white"/>
<path d="M70.4742 12.3908L70.461 12.376C70.2034 12.0872 70.0917 11.7206 70.0917 11.3185V9.72626C70.0917 9.32593 70.2029 8.95797 70.4745 8.68122C70.7563 8.39413 71.1209 8.26434 71.5266 8.26434C71.9151 8.26434 72.2634 8.39484 72.5263 8.68106C72.8121 8.95386 72.9353 9.32096 72.9353 9.72626V11.3185C72.9353 11.7317 72.8078 12.1033 72.5261 12.3904C72.2588 12.6627 71.9096 12.7805 71.5266 12.7805C71.1319 12.7805 70.7721 12.6666 70.4887 12.4041L70.4742 12.3908Z" fill="#37D5C7"/>
</svg>
