<svg width="24" height="24" viewBox="0 0 24 24" fill="none" xmlns="http://www.w3.org/2000/svg">
<path d="M11.4696 6.69671L13.3258 4.84055C13.7088 4.45722 14.1635 4.1531 14.6641 3.94556C15.1646 3.73802 15.7011 3.63114 16.243 3.63101C16.7849 3.63089 17.3214 3.73752 17.8221 3.94483C18.3227 4.15213 18.7776 4.45604 19.1608 4.8392C19.5439 5.22235 19.8478 5.67725 20.0551 6.17789C20.2624 6.67853 20.3691 7.21511 20.369 7.75697C20.3688 8.29884 20.2619 8.83537 20.0544 9.33591C19.8469 9.83646 19.5427 10.2912 19.1594 10.6742L16.5078 13.3258C16.1247 13.7089 15.67 14.0127 15.1695 14.22C14.669 14.4273 14.1327 14.534 13.5909 14.534C13.0492 14.534 12.5128 14.4273 12.0124 14.22C11.5119 14.0127 11.0572 13.7089 10.6741 13.3258" stroke="#687085" stroke-width="1.5" stroke-linecap="round" stroke-linejoin="round"/>
<path d="M12.5303 17.3033L10.6742 19.1595C10.2912 19.5428 9.83643 19.8469 9.33588 20.0545C8.83534 20.262 8.29881 20.3689 7.75694 20.369C7.21508 20.3691 6.6785 20.2625 6.17786 20.0552C5.67721 19.8479 5.22232 19.544 4.83917 19.1608C4.45601 18.7777 4.1521 18.3228 3.94479 17.8221C3.73749 17.3215 3.63086 16.7849 3.63098 16.2431C3.63111 15.7012 3.73799 15.1647 3.94553 14.6641C4.15307 14.1636 4.45719 13.7088 4.84052 13.3258L7.49217 10.6742C7.87522 10.2911 8.32995 9.9873 8.83042 9.78C9.33089 9.5727 9.86729 9.466 10.409 9.466C10.9507 9.466 11.4871 9.5727 11.9876 9.78C12.488 9.9873 12.9428 10.2911 13.3258 10.6742" stroke="#687085" stroke-width="1.5" stroke-linecap="round" stroke-linejoin="round"/>
</svg>
