<svg width="24" height="24" viewBox="0 0 24 24" fill="none" xmlns="http://www.w3.org/2000/svg">
<path d="M19.711 3.36355L2.24282 8.29049C2.09586 8.33194 1.96506 8.41725 1.86789 8.53503C1.77072 8.65281 1.71181 8.79744 1.69904 8.9496C1.68627 9.10175 1.72024 9.25418 1.79642 9.38651C1.8726 9.51884 1.98736 9.62476 2.12535 9.69013L10.1514 13.4919C10.3079 13.5661 10.434 13.6921 10.5081 13.8487L14.3099 21.8747C14.3753 22.0127 14.4812 22.1274 14.6135 22.2036C14.7458 22.2798 14.8983 22.3138 15.0504 22.301C15.2026 22.2882 15.3472 22.2293 15.465 22.1321C15.5828 22.035 15.6681 21.9042 15.7095 21.7572L20.6365 4.28898C20.6727 4.16067 20.674 4.02503 20.6403 3.89603C20.6067 3.76703 20.5392 3.64933 20.445 3.55506C20.3507 3.46079 20.233 3.39335 20.104 3.35969C19.975 3.32603 19.8394 3.32736 19.711 3.36355Z" stroke="#687085" stroke-width="1.5" stroke-linecap="round" stroke-linejoin="round"/>
<path d="M10.3934 13.6066L14.6361 9.36395" stroke="#687085" stroke-width="1.5" stroke-linecap="round" stroke-linejoin="round"/>
</svg>
