<svg width="117" height="31" viewBox="0 0 117 31" fill="none" xmlns="http://www.w3.org/2000/svg">
<g clip-path="url(#clip0)">
<path d="M5.60155 9.19225C5.19549 8.48966 5.43646 7.59123 6.13977 7.18557L11.8703 3.88028C12.5736 3.47463 13.4729 3.71536 13.8789 4.41798C14.2851 5.1206 14.044 6.01903 13.3407 6.4247L7.61021 9.73003C6.90691 10.1356 6.00759 9.8949 5.60155 9.19225Z" fill="#37D5C7"/>
<path d="M9.64841 27.2132C9.24242 26.5106 9.48326 25.6122 10.1866 25.2065L15.9172 21.9013C16.6204 21.4956 17.5197 21.7363 17.9258 22.439C18.3319 23.1416 18.091 24.04 17.3876 24.4457L11.657 27.751C10.9538 28.1566 10.0545 27.9159 9.64841 27.2132Z" fill="#37D5C7"/>
<path d="M12.56 15.3564C12.154 14.6537 12.395 13.7553 13.0982 13.3497L21.0573 8.75895C21.7607 8.35329 22.6599 8.59402 23.0659 9.29666C23.472 9.99926 23.2311 10.8977 22.5277 11.3033L14.5687 15.8941C13.8654 16.2997 12.966 16.059 12.56 15.3564Z" fill="#37D5C7"/>
<path d="M0.781232 22.1506C0.375179 21.448 0.61615 20.5495 1.31946 20.1439L9.91524 15.186C10.6185 14.7803 11.5179 15.021 11.9239 15.7237C12.3299 16.4262 12.089 17.3247 11.3857 17.7303L2.7899 22.6883C2.0866 23.0939 1.18728 22.8532 0.781232 22.1506Z" fill="#37D5C7"/>
<path d="M13.8555 9.51998C13.4493 8.81735 13.6904 7.91892 14.3937 7.51327L15.9855 6.59513C16.6888 6.18947 17.5882 6.43021 17.9942 7.13283C18.4003 7.83544 18.1592 8.73388 17.456 9.13951L15.8641 10.0577C15.1608 10.4634 14.2615 10.2226 13.8555 9.51998Z" fill="#37D5C7"/>
<path d="M18.563 22.0714C18.1569 21.3687 18.3979 20.4703 19.1012 20.0646L20.693 19.1465C21.3964 18.7409 22.2956 18.9815 22.7016 19.6842C23.1078 20.3868 22.8668 21.2853 22.1634 21.691L20.5717 22.609C19.8683 23.0147 18.9691 22.774 18.563 22.0714Z" fill="#37D5C7"/>
<path d="M5.21532 24.6815C4.80926 23.9791 5.05023 23.0806 5.75354 22.6749L7.34534 21.7568C8.04864 21.3511 8.94796 21.5918 9.35401 22.2945C9.76009 22.9971 9.51907 23.8956 8.81577 24.3012L7.22398 25.2193C6.52068 25.6249 5.62136 25.3842 5.21532 24.6815Z" fill="#37D5C7"/>
<path d="M0.826154 11.9464C0.420101 11.2439 0.661071 10.3455 1.36438 9.93979L2.95618 9.02164C3.65949 8.61598 4.55879 8.85672 4.96486 9.55933C5.37091 10.262 5.12993 11.1604 4.42663 11.566L2.83483 12.4842C2.13152 12.8898 1.2322 12.6491 0.826154 11.9464Z" fill="#37D5C7"/>
<path d="M0.804182 17.0487C0.398129 16.346 0.639098 15.4476 1.3424 15.0419L11.2116 9.3495C11.9149 8.94386 12.8141 9.18464 13.2203 9.88722C13.6263 10.5898 13.3854 11.4882 12.6821 11.8939L2.81285 17.5864C2.10955 17.992 1.21024 17.7513 0.804182 17.0487Z" fill="#37D5C7"/>
<path d="M9.99067 21.9276C9.58468 21.225 9.82561 20.3266 10.529 19.9208L20.3982 14.2284C21.1014 13.8228 22.0007 14.0635 22.4068 14.7662C22.8128 15.4687 22.5718 16.3671 21.8686 16.7729L11.9994 22.4653C11.296 22.8709 10.3967 22.6302 9.99067 21.9276Z" fill="#37D5C7"/>
<path fill-rule="evenodd" clip-rule="evenodd" d="M48.9452 23.4709C47.723 22.7479 46.7555 21.7515 46.0472 20.4888L46.0446 20.4842C45.3523 19.2146 45.0117 17.7722 45.0117 16.169C45.0117 14.5523 45.3315 13.1118 45.985 11.8609L45.9862 11.8586C46.6548 10.5964 47.574 9.59781 48.7414 8.87209C49.9164 8.14161 51.2636 7.78223 52.7686 7.78223C54.2518 7.78223 55.5627 8.1306 56.6843 8.84367C57.8172 9.53316 58.6919 10.4975 59.3047 11.726C59.9174 12.9544 60.2182 14.344 60.2182 15.8844C60.2182 16.2891 60.0901 16.6545 59.811 16.939L59.8029 16.9473L59.7943 16.9551C59.5131 17.2129 59.1602 17.3254 58.7758 17.3254H47.99C48.0949 17.9452 48.288 18.5107 48.5667 19.0249C49.0323 19.8494 49.6578 20.4942 50.4471 20.9663C51.2288 21.4337 52.138 21.6737 53.1878 21.6737C53.8079 21.6737 54.4308 21.5686 55.0581 21.356C55.711 21.122 56.2065 20.8426 56.5626 20.5293L56.5714 20.5215C56.849 20.2901 57.1738 20.1685 57.5309 20.165C57.8839 20.1426 58.2133 20.2362 58.4898 20.4616L58.5018 20.4715L58.5132 20.4821C58.8157 20.7668 59.0118 21.1193 59.0167 21.5332C59.0411 21.9519 58.8663 22.3068 58.5538 22.5727C57.8923 23.1441 57.0633 23.6131 56.0783 23.9869L56.0713 23.9896C55.0815 24.3456 54.1195 24.5273 53.1878 24.5273C51.6142 24.5273 50.1984 24.1804 48.9524 23.475L48.9452 23.4709ZM55.2129 11.3042C54.5504 10.8653 53.7423 10.6359 52.7686 10.6359C51.7786 10.6359 50.9299 10.8738 50.2068 11.3364C49.478 11.8026 48.9072 12.4505 48.4939 13.2919C48.2983 13.6997 48.1499 14.14 48.0499 14.6141H57.2651C57.176 14.0978 57.0264 13.618 56.8174 13.1727C56.441 12.3711 55.9081 11.7532 55.2172 11.3069L55.2129 11.3042Z" fill="#112D57"/>
<path d="M66.2987 8.61351L66.3021 8.61141C67.2659 8.0386 68.3297 7.75378 69.4838 7.75378C70.3715 7.75378 71.1137 7.87981 71.669 8.174C71.9571 8.32664 72.1987 8.53737 72.34 8.82517C72.4837 9.11777 72.4975 9.43741 72.4229 9.75411L72.4204 9.76497C72.3274 10.12 72.1421 10.4405 71.8112 10.6131C71.5488 10.7588 71.2458 10.7999 70.9336 10.7772L70.9311 10.777C70.6922 10.7583 70.4156 10.7394 70.1007 10.7206L70.0943 10.7202L70.0876 10.7197C69.0985 10.6296 68.236 10.7392 67.4897 11.033L67.4847 11.035C66.7564 11.3111 66.1842 11.7362 65.7537 12.3083C65.3511 12.8679 65.1425 13.5405 65.1425 14.3472V22.8586C65.1425 23.2844 65.0243 23.6758 64.7353 23.97C64.4463 24.2645 64.0622 24.3851 63.6443 24.3851C63.2264 24.3851 62.8422 24.2645 62.5533 23.97C62.2643 23.6758 62.146 23.2844 62.146 22.8586V9.45105C62.146 9.0253 62.2643 8.63388 62.5533 8.33951C62.8422 8.04515 63.2264 7.92458 63.6443 7.92458C64.0622 7.92458 64.4463 8.04515 64.7353 8.33951C65.0243 8.63388 65.1425 9.0253 65.1425 9.45105V9.50493C65.4937 9.16548 65.8792 8.86813 66.2987 8.61351Z" fill="#112D57"/>
<path d="M74.9587 23.9707L74.9447 23.955C74.6706 23.6479 74.5518 23.2579 74.5518 22.8302V15.9029C74.5518 15.4772 74.6701 15.0858 74.959 14.7913C75.2587 14.486 75.6466 14.348 76.078 14.348C76.4913 14.348 76.8617 14.4868 77.1414 14.7912C77.4453 15.0814 77.5763 15.4719 77.5763 15.9029V22.8302C77.5763 23.2697 77.4408 23.665 77.1411 23.9703C76.8568 24.2599 76.4854 24.3852 76.078 24.3852C75.6581 24.3852 75.2755 24.2642 74.974 23.9849L74.9587 23.9707Z" fill="#112D57"/>
<path fill-rule="evenodd" clip-rule="evenodd" d="M103.353 23.4408L103.348 23.4381C102.147 22.6961 101.191 21.6918 100.486 20.4319L100.483 20.4272C99.7908 19.1594 99.4497 17.7364 99.4497 16.169C99.4497 14.5816 99.8007 13.1473 100.514 11.8778L100.516 11.8731C101.243 10.6119 102.228 9.61729 103.467 8.89539C104.712 8.15077 106.112 7.78223 107.654 7.78223C109.195 7.78223 110.585 8.15047 111.813 8.89612C113.052 9.6181 114.029 10.6131 114.736 11.8752C115.467 13.1431 115.838 14.5764 115.858 16.1635V16.169V22.8585C115.858 23.287 115.717 23.6698 115.422 23.9701L115.415 23.9775L115.407 23.9847C115.111 24.2596 114.74 24.385 114.331 24.385C113.923 24.385 113.552 24.2596 113.255 23.9847L113.248 23.9775L113.24 23.9701C112.946 23.6698 112.805 23.287 112.805 22.8585V22.3381C112.358 22.7922 111.849 23.1886 111.283 23.5269L111.281 23.5282C110.145 24.1977 108.857 24.5273 107.43 24.5273C105.925 24.5273 104.562 24.168 103.353 23.4408ZM110.306 20.94L110.311 20.9377C111.099 20.466 111.715 19.8222 112.16 18.9996L112.162 18.9968C112.627 18.1572 112.862 17.2179 112.862 16.169C112.862 15.0996 112.626 14.1622 112.164 13.3447L112.16 13.3384C111.715 12.5158 111.099 11.8719 110.311 11.4002L110.301 11.3944C109.538 10.911 108.66 10.6644 107.654 10.6644C106.667 10.6644 105.787 10.9102 105.003 11.3966L104.996 11.4003C104.206 11.8729 103.581 12.5187 103.115 13.3447C102.654 14.1622 102.419 15.0996 102.419 16.169C102.419 17.2173 102.653 18.1559 103.115 18.9951C103.582 19.8203 104.206 20.4656 104.996 20.9378C105.782 21.4073 106.663 21.6451 107.654 21.6451C108.663 21.6451 109.543 21.4065 110.306 20.94Z" fill="#112D57"/>
<path d="M35.1474 23.3865L35.1482 23.3883C35.2824 23.6841 35.4641 23.937 35.7073 24.1158C35.9554 24.2985 36.2422 24.385 36.5496 24.385C36.8679 24.385 37.1661 24.3027 37.4248 24.1223C37.6807 23.944 37.871 23.6882 38.0077 23.3865L44.1238 9.95685C44.2891 9.61599 44.3 9.2525 44.1676 8.89794C44.0339 8.52063 43.7766 8.23731 43.4225 8.05699L43.4111 8.05114L43.3993 8.046C43.0391 7.88869 42.6615 7.87666 42.2878 8.00142C41.9007 8.11699 41.6189 8.38209 41.4591 8.75856L36.5567 19.7229L31.5758 8.73983L31.5695 8.72786C31.3929 8.39363 31.1287 8.14668 30.7829 8.01121C30.4133 7.86638 30.0359 7.904 29.682 8.08275C29.3233 8.25458 29.0461 8.52077 28.9056 8.89293C28.7688 9.25529 28.7849 9.62668 28.9446 9.97912L35.1474 23.3865Z" fill="#112D57"/>
<path fill-rule="evenodd" clip-rule="evenodd" d="M81.5992 20.4367C82.3261 21.6977 83.3109 22.7011 84.5486 23.4416L84.5531 23.4442C85.7983 24.1692 87.1965 24.5276 88.7374 24.5276C90.2591 24.5276 91.6397 24.169 92.8664 23.4435C94.1057 22.7222 95.0822 21.737 95.7923 20.4926C96.5204 19.228 96.902 17.816 96.9416 16.2661V2.81874C96.9416 2.3841 96.8075 1.99073 96.4988 1.69986C96.2054 1.40455 95.8328 1.26379 95.4152 1.26379C94.9976 1.26379 94.625 1.40456 94.3307 1.69987C94.022 1.99075 93.8888 2.38412 93.8888 2.81874V9.9746C93.3749 9.45666 92.7764 9.01827 92.0978 8.65948C91.0241 8.07222 89.8262 7.78251 88.5139 7.78251C87.007 7.78251 85.6431 8.1521 84.4337 8.89885C83.2316 9.62224 82.2754 10.6178 81.5687 11.878L81.5661 11.8826C80.8747 13.1505 80.5332 14.5735 80.5332 16.1408C80.5332 17.7282 80.8846 19.1627 81.5966 20.4322L81.5992 20.4367ZM93.248 13.345C93.7097 14.1637 93.9446 15.0919 93.9446 16.1408C93.9446 17.2102 93.7088 18.1477 93.248 18.9651L93.2444 18.9714C92.7971 19.795 92.1815 20.4497 91.3895 20.9409C90.6263 21.4071 89.7468 21.6454 88.7374 21.6454C87.7491 21.6454 86.8679 21.4083 86.0833 20.9399C85.2912 20.448 84.6642 19.7916 84.1983 18.9651C83.7373 18.1477 83.5019 17.2102 83.5019 16.1408C83.5019 15.0919 83.7366 14.1637 84.1983 13.345L84.2002 13.3415C84.6666 12.4968 85.2923 11.8433 86.0803 11.3721C86.8655 10.9025 87.7473 10.6647 88.7374 10.6647C89.7468 10.6647 90.6272 10.9032 91.3904 11.3699L91.394 11.3721C92.1806 11.8424 92.7962 12.494 93.2426 13.3353L93.248 13.345Z" fill="#112D57"/>
<path d="M74.9586 12.6311L74.9446 12.6154C74.6706 12.3082 74.5518 11.9183 74.5518 11.4906V9.79701C74.5518 9.37121 74.67 8.97983 74.9589 8.68547C75.2587 8.38012 75.6465 8.24207 76.078 8.24207C76.4913 8.24207 76.8617 8.38087 77.1413 8.6853C77.4453 8.97546 77.5763 9.36592 77.5763 9.79701V11.4906C77.5763 11.9301 77.4408 12.3253 77.1411 12.6306C76.8567 12.9203 76.4854 13.0456 76.078 13.0456C75.6581 13.0456 75.2754 12.9245 74.974 12.6453L74.9586 12.6311Z" fill="#37D5C7"/>
</g>
<defs>
<clipPath id="clip0">
<rect width="117" height="30.53" fill="white" transform="translate(0 0.391357)"/>
</clipPath>
</defs>
</svg>
