<svg width="18" height="18" viewBox="0 0 18 18" fill="none" xmlns="http://www.w3.org/2000/svg">
<path d="M6.75 5.0625V3.375" stroke="white" stroke-width="1.5" stroke-linecap="round" stroke-linejoin="round"/>
<path d="M11.25 14.625V12.9375" stroke="white" stroke-width="1.5" stroke-linecap="round" stroke-linejoin="round"/>
<path d="M5.0625 6.75H3.375" stroke="white" stroke-width="1.5" stroke-linecap="round" stroke-linejoin="round"/>
<path d="M14.625 11.25H12.9375" stroke="white" stroke-width="1.5" stroke-linecap="round" stroke-linejoin="round"/>
<path d="M4.99416 9.02832L4.19866 9.82382C3.67147 10.3513 3.37538 11.0666 3.37549 11.8124C3.3756 12.5582 3.67191 13.2734 4.19925 13.8007C4.72659 14.328 5.44179 14.6244 6.18757 14.6245C6.93335 14.6246 7.64864 14.3285 8.17614 13.8013L8.97163 13.0058" stroke="white" stroke-width="1.5" stroke-linecap="round" stroke-linejoin="round"/>
<path d="M13.0058 8.97175L13.8013 8.17626C14.3285 7.64876 14.6246 6.93347 14.6245 6.18769C14.6244 5.44192 14.328 4.72672 13.8007 4.19937C13.2734 3.67203 12.5582 3.37572 11.8124 3.37561C11.0666 3.3755 10.3513 3.6716 9.82382 4.19878L9.02832 4.99428" stroke="white" stroke-width="1.5" stroke-linecap="round" stroke-linejoin="round"/>
</svg>
